<?xml version="1.0" standalone="no"?>
<!DOCTYPE svg PUBLIC "-//W3C//DTD SVG 20010904//EN"
 "http://www.w3.org/TR/2001/REC-SVG-20010904/DTD/svg10.dtd">
<svg version="1.0" xmlns="http://www.w3.org/2000/svg"
 width="108.000000pt" height="108.000000pt" viewBox="0 0 108.000000 108.000000"
 preserveAspectRatio="xMidYMid meet">
<metadata>
Created by potrace 1.14, written by Peter Selinger 2001-2017
</metadata>
<g transform="translate(0.000000,108.000000) scale(0.100000,-0.100000)"
fill="#000000" stroke="none">
<path d="M499 1060 c-1 -5 -2 -16 -3 -22 -1 -9 -28 -15 -80 -20 -97 -9 -211
-59 -266 -117 -48 -50 -89 -138 -106 -229 -27 -144 -14 -253 47 -379 54 -113
178 -236 249 -246 8 -2 20 -6 27 -10 6 -4 15 -3 18 3 4 7 11 8 18 2 17 -14
129 -23 121 -10 -4 6 0 7 12 1 21 -10 164 -10 180 0 5 3 16 2 24 -3 9 -6 19
-3 28 8 9 12 11 12 6 2 -5 -10 1 -8 16 5 13 11 20 14 15 6 -6 -10 -4 -12 4 -7
7 5 10 14 7 22 -3 8 0 11 8 8 15 -6 29 22 20 38 -4 6 3 5 15 -1 12 -7 21 -8
20 -4 -3 19 2 34 10 29 10 -7 22 18 17 37 -1 6 -1 9 1 5 3 -5 9 -8 14 -8 6 0
8 4 5 9 -3 5 1 12 10 15 14 5 14 9 3 23 -11 13 -11 15 -1 9 7 -4 19 -2 27 4
18 15 20 34 3 25 -7 -4 -4 2 8 12 11 10 19 24 16 31 -2 6 2 12 8 12 10 0 9 4
0 15 -11 13 -10 14 4 9 12 -5 15 -2 9 12 -4 10 -2 15 4 11 5 -3 10 0 10 8 0 8
-5 11 -11 8 -6 -4 -5 0 1 8 10 12 10 18 0 28 -9 10 -8 11 7 5 16 -6 17 -5 6
16 -8 15 -8 20 -1 16 6 -4 11 0 11 9 0 10 -5 13 -12 9 -6 -4 -4 3 5 16 12 18
14 27 5 37 -8 10 -7 13 3 13 11 0 11 2 0 9 -12 8 -12 12 -2 24 9 12 9 17 0 23
-8 5 -9 3 -4 -6 5 -9 4 -11 -4 -6 -8 5 -9 12 -3 19 5 7 8 21 6 32 -2 11 -5 35
-6 53 0 17 -6 32 -11 32 -6 0 -7 3 -4 7 4 3 2 12 -4 20 -9 10 -8 13 2 13 11 1
11 3 -1 13 -8 7 -17 21 -18 32 -8 44 -85 129 -157 170 -45 26 -170 55 -240 55
-25 0 -45 5 -45 11 0 25 -48 52 -51 29z m541 -554 c0 -3 -4 -8 -10 -11 -5 -3
-10 -1 -10 4 0 6 5 11 10 11 6 0 10 -2 10 -4z"/>
</g>
</svg>
